<?xml version="1.0" encoding="UTF-8"?>
<svg xmlns="http://www.w3.org/2000/svg" xmlns:xlink="http://www.w3.org/1999/xlink" viewBox="0 0 500 500" width="500px" height="500px">
<g id="surface13297112">
<path style=" stroke:none;fill-rule:nonzero;fill:rgb(100%,100%,100%);fill-opacity:1;" d="M 250 30 C 128.617188 30 30 128.617188 30 250 C 30 360.191406 111.273438 451.382812 217.128906 467.285156 L 228.613281 469.023438 L 228.613281 295.664062 L 176.640625 295.664062 L 176.640625 260.46875 L 228.613281 260.46875 L 228.613281 213.730469 C 228.613281 184.949219 235.519531 165.996094 246.953125 154.101562 C 258.386719 142.207031 275.28125 136.210938 298.789062 136.210938 C 317.585938 136.210938 324.898438 137.351562 331.855469 138.203125 L 331.855469 167.011719 L 307.382812 167.011719 C 293.496094 167.011719 282.105469 174.757812 276.191406 185.078125 C 270.277344 195.398438 268.4375 207.71875 268.4375 220.273438 L 268.4375 260.449219 L 329.667969 260.449219 L 324.21875 295.644531 L 268.4375 295.644531 L 268.4375 469.296875 L 279.785156 467.753906 C 387.144531 453.195312 470 361.269531 470 250 C 470 128.617188 371.382812 30 250 30 Z M 250 50 C 360.574219 50 450 139.425781 450 250 C 450 347.296875 380.359375 427.316406 288.4375 445.332031 L 288.4375 315.644531 L 341.367188 315.644531 L 352.988281 240.449219 L 288.4375 240.449219 L 288.4375 220.273438 C 288.4375 209.898438 290.335938 200.601562 293.535156 195.019531 C 296.734375 189.4375 299.820312 187.011719 307.382812 187.011719 L 351.855469 187.011719 L 351.855469 120.097656 L 343.183594 118.925781 C 337.1875 118.113281 323.492188 116.210938 298.789062 116.210938 C 271.757812 116.210938 248.554688 123.574219 232.539062 140.234375 C 216.523438 156.894531 208.613281 181.703125 208.613281 213.730469 L 208.613281 240.46875 L 156.640625 240.46875 L 156.640625 315.664062 L 208.613281 315.664062 L 208.613281 444.707031 C 118.167969 425.546875 50 346.246094 50 250 C 50 139.425781 139.425781 50 250 50 Z M 250 50 "/>
</g>
</svg>
